<svg width="640" height="240" xmlns="http://www.w3.org/2000/svg">
 <g>
  <title>background</title>
  <rect x="-1" y="-1" width="642" height="242" id="canvas_background" fill="none"/>
 </g>

 <g>
  <title>Layer 1</title>
  <g fill-rule="evenodd" id="svg_1">
   <path d="m318.23834,57.31832c-1.34179,-0.30957 -2.68066,0.52539 -2.9912,1.86718c-0.31055,1.34179 0.52637,2.68163 1.86816,2.99218c6.20311,1.43359 11.87301,4.58299 16.39546,9.10544c13.29586,13.29586 13.29586,34.93154 0,48.2274c-13.29586,13.29684 -34.93154,13.29684 -48.2274,0c-13.29684,-13.29586 -13.29684,-34.93154 0,-48.2274c3.81737,-3.81737 8.33494,-6.60154 13.4277,-8.27732c1.30761,-0.42969 2.01952,-1.83886 1.58984,-3.14745c-0.43066,-1.30859 -1.84081,-2.0205 -3.14843,-1.58984c-5.84178,1.92089 -11.02145,5.11327 -15.39546,9.48825c-15.24117,15.24117 -15.24117,40.03992 0,55.28109c7.6201,7.6201 17.62983,11.43063 27.64054,11.43063c10.00974,-0.00098 20.01947,-3.81054 27.64054,-11.43063c15.24019,-15.24117 15.24019,-40.03992 0,-55.28109c-5.18455,-5.18358 -11.68454,-8.79392 -18.79975,-10.43844l0,0zm0,0" id="svg_2" fill="#999999"/>
   <path d="m380.6034,150.17644l-26.13274,-26.13274c13.40035,-21.01361 10.46579,-48.62095 -7.31638,-66.4041c-10.08493,-10.08493 -23.49407,-15.6396 -37.75673,-15.6396c-14.26363,0 -27.67277,5.55467 -37.7577,15.6396c-10.08591,10.08493 -15.6396,23.49407 -15.6396,37.7577c0,14.26266 5.55369,27.67179 15.6396,37.75673c10.08493,10.08493 23.4931,15.63862 37.75575,15.63862c10.2363,0 20.09662,-2.87108 28.64835,-8.32224l26.13274,26.13274c2.18652,2.18749 5.1035,3.39159 8.21384,3.39159c3.10937,0 6.02635,-1.2041 8.21384,-3.39159c4.52733,-4.52928 4.52733,-11.89743 -0.00098,-16.42671l0.00001,0zm-3.52636,12.90035c-1.24511,1.24414 -2.90917,1.92968 -4.68651,1.92968c-1.77831,0 -3.44237,-0.68554 -4.68749,-1.92968l-27.57609,-27.57609c-0.48242,-0.4834 -1.12109,-0.73047 -1.76366,-0.73047c-0.49414,0 -0.99023,0.14551 -1.4209,0.44434c-8.10251,5.6201 -17.62885,8.59079 -27.54679,8.59079c-12.93063,0 -25.08684,-5.03514 -34.22939,-14.17769c-18.87495,-18.87495 -18.87495,-49.58677 0,-68.46172c9.14353,-9.14353 21.29974,-14.17867 34.23135,-14.17867c12.93063,0 25.08684,5.03514 34.23037,14.17867c16.57026,16.57124 18.92084,42.55163 5.5869,61.77619c-0.6875,0.99121 -0.56738,2.33105 0.28613,3.18456l27.57609,27.57609c2.58398,2.58398 2.58398,6.78904 0,9.374l-0.00001,0zm0,0" id="svg_3" fill="#999999"/>
   <path d="m324.45122,80.34266c-0.97363,-0.97363 -2.55175,-0.97363 -3.52636,0l-11.52731,11.52731l-11.52829,-11.52731c-0.97363,-0.97363 -2.55273,-0.97363 -3.52636,0c-0.97363,0.97363 -0.97363,2.55273 0,3.52636l11.52731,11.52829l-11.52731,11.52731c-0.97363,0.97363 -0.97363,2.55273 0,3.52636c0.48633,0.4873 1.125,0.73047 1.76269,0.73047c0.63867,0 1.27636,-0.24316 1.76367,-0.73047l11.52731,-11.52731l11.52731,11.52731c0.4873,0.4873 1.12597,0.73047 1.76367,0.73047c0.63867,0 1.27636,-0.24316 1.76367,-0.73047c0.97363,-0.97363 0.97363,-2.55273 0,-3.52636l-11.52829,-11.52731l11.52829,-11.52829c0.97363,-0.97363 0.97363,-2.55273 0,-3.52636zm0,0" id="svg_4" fill="#999999"/>
   <path d="m307.74423,61.33198c1.37304,0 2.49316,-1.12011 2.49316,-2.49414c0,-1.37304 -1.12011,-2.49316 -2.49316,-2.49316c-1.37402,0 -2.49413,1.12011 -2.49413,2.49316c0,1.37402 1.12011,2.49414 2.49413,2.49414zm0,0" id="svg_5" fill="#999999"/>
  </g>
  <text fill="#000000" stroke="#000" stroke-width="0" x="219.48334" y="200.95001" id="svg_6" font-size="15" font-family="sans-serif" text-anchor="start" xml:space="preserve">No image found for timestamp</text>
 </g>
</svg>