<svg width="640" height="240" xmlns="http://www.w3.org/2000/svg">

 <g>
  <title>background</title>
  <rect fill="none" id="canvas_background" height="242" width="642" y="-1" x="-1"/>
 </g>
 <g>
  <title>Layer 1</title>
  <g id="svg_1">
   <path fill="#999999" id="svg_2" d="m364.21894,127.71114l-57.37492,-53.91302c-1.55441,-1.46055 -3.81196,-1.83104 -5.75181,-0.9439c-1.93984,0.88738 -3.13597,2.83768 -3.04733,4.96925l2.24087,53.8443c0.04283,1.0303 0.90556,1.83129 1.94358,1.78821c1.03055,-0.04283 1.83104,-0.91303 1.78821,-1.94358l-2.24087,-53.8443c-0.03859,-0.92847 0.65558,-1.31962 0.86921,-1.41747s0.96307,-0.3675 1.64056,0.2694l57.37492,53.91327c0.64487,0.60603 0.5276,1.33108 0.44718,1.61467s-0.36078,0.96258 -1.22775,1.14035l-20.65756,4.23773c-0.55748,0.11428 -1.03229,0.47681 -1.28974,0.98424c-0.2577,0.50743 -0.26965,1.1045 -0.03312,1.62214l3.49052,7.63015c0.31397,0.68595 0.99096,1.09105 1.69932,1.09105c0.25994,0 0.52386,-0.05453 0.77584,-0.16981c0.93793,-0.429 1.35025,-1.53699 0.92125,-2.47491l-2.514,-5.4956l18.35843,-3.7659c1.96424,-0.40311 3.52414,-1.85195 4.07041,-3.78134c0.54627,-1.93013 -0.02191,-3.98152 -1.48321,-5.35493z"/>
   <path fill="#999999" id="svg_3" d="m349.09856,153.34641c-0.42925,-0.93793 -1.53748,-1.3505 -2.47491,-0.92125c-0.93793,0.429 -1.35025,1.53723 -0.92125,2.47491l2.27946,4.98244c0.11404,0.24948 0.12449,0.52884 0.02863,0.78605c-0.09561,0.2572 -0.28584,0.46162 -0.53557,0.5759l-9.83591,4.49966c-0.24948,0.11404 -0.52884,0.12399 -0.7858,0.02863c-0.2572,-0.09586 -0.46162,-0.28584 -0.5759,-0.53557l-9.08099,-19.85085c-0.23678,-0.51739 -0.69641,-0.89859 -1.24891,-1.03578c-0.55225,-0.13719 -1.13687,-0.01469 -1.58803,0.3324l-16.71413,12.85859c-0.70114,0.53955 -1.3983,0.30799 -1.66521,0.18325s-0.89236,-0.51017 -0.92921,-1.39432l-0.70164,-16.86004c-0.04283,-1.03055 -0.90954,-1.83253 -1.94358,-1.78821c-1.0303,0.04283 -1.83104,0.91303 -1.78821,1.94358l0.70164,16.86004c0.08341,2.00358 1.2641,3.77511 3.08119,4.62316c1.81709,0.84829 3.93297,0.61524 5.52224,-0.60728l14.85371,-11.42743l8.10447,17.71655c0.52909,1.15679 1.47723,2.03844 2.66937,2.48213c0.54129,0.20143 1.10325,0.30177 1.66372,0.30177c0.6745,0 1.34726,-0.14516 1.97893,-0.43423l9.83566,-4.49941c1.15679,-0.52909 2.03844,-1.47723 2.48213,-2.66937s0.39688,-2.48562 -0.13246,-3.64265l-2.27946,-4.98269z"/>
   <path fill="#999999" id="svg_4" d="m307.27551,63.45377c3.25299,1.21082 5.8397,3.61601 7.28357,6.77265c0.80397,1.75709 1.20011,3.62298 1.17795,5.5454c-0.01195,1.0313 0.81443,1.87685 1.84573,1.8888c1.02756,0.01594 1.87685,-0.81443 1.8888,-1.84573c0.02838,-2.4774 -0.48179,-4.88036 -1.51632,-7.14214c-1.85892,-4.06344 -5.1891,-7.16007 -9.37703,-8.71897s-8.73191,-1.39382 -12.7956,0.46535c-8.38831,3.83761 -12.09097,13.78407 -8.25361,22.17263c0.88813,1.94109 2.12086,3.67154 3.66357,5.14304c0.36178,0.34484 0.82539,0.5159 1.2885,0.5159c0.49274,0 0.98474,-0.19396 1.35174,-0.57864c0.7116,-0.74646 0.68371,-1.92839 -0.0625,-2.64024c-1.19812,-1.14234 -2.15522,-2.48612 -2.84491,-3.99397c-2.98085,-6.51569 -0.10482,-14.24171 6.41112,-17.22256c3.15614,-1.44411 6.686,-1.57234 9.93899,-0.36153z"/>
   <path fill="#999999" id="svg_5" d="m330.89375,69.09777c1.42021,6.09018 0.78754,12.60637 -1.78174,18.34772c-0.42128,0.94141 0.00025,2.04591 0.94166,2.46719c0.24774,0.1108 0.50668,0.16333 0.76165,0.16333c0.71384,0 1.39531,-0.41157 1.70555,-1.105c2.90068,-6.48208 3.61452,-13.84109 2.01006,-20.72155c-0.23405,-1.00441 -1.23721,-1.62861 -2.24261,-1.39457c-1.00441,0.2343 -1.62886,1.23845 -1.39457,2.24286z"/>
   <path fill="#999999" id="svg_6" d="m293.82857,103.11762c-7.6792,-2.49259 -14.00791,-8.12937 -17.36373,-15.46472c-3.21091,-7.01889 -3.49625,-14.86815 -0.80372,-22.10167s8.04098,-12.98558 15.06012,-16.19649c13.89761,-6.35834 30.38666,-0.77111 37.53776,12.71916c0.48328,0.91104 1.61318,1.25862 2.52446,0.77534c0.91129,-0.48303 1.25837,-1.61318 0.77534,-2.52446c-8.07633,-15.23541 -26.69645,-21.54594 -42.39123,-14.36645c-7.92595,3.62597 -13.96583,10.12125 -17.00644,18.28996c-3.04061,8.16846 -2.71842,17.03208 0.90755,24.95828c3.78956,8.28374 10.93593,14.6488 19.60709,17.46358c0.19147,0.06225 0.38568,0.09163 0.5769,0.09163c0.78729,0 1.51956,-0.50195 1.77576,-1.29149c0.3182,-0.98075 -0.21886,-2.03396 -1.19986,-2.35266z"/>
  </g>
  <text xml:space="preserve" text-anchor="start" font-family="sans-serif" font-size="15" id="svg_7" y="197.95001" x="206.2" stroke-opacity="null" stroke-width="0" stroke="null" fill="#000000">Click on a graph to load an image</text>
 </g>
</svg>